/* XPM */
static char *icon_image[]={
"32 32 396 2",
".b c None",
"af c #305b60",
"cH c #63332f",
"ej c #840000",
"dJ c #850000",
"e. c #880000",
"d9 c #8a0000",
"dB c #910000",
"dS c #b30000",
"ei c #c30000",
"dK c #ca0000",
"cc c #1c717f",
"#4 c #2f5e64",
"cp c #2f5f66",
"Qt c #444440",
"#F c #49413c",
"cZ c #4a3f39",
"#Q c #533832",
"dY c #691a07",
"dT c #6c1501",
".l c #6d1500",
".a c #701100",
"#d c #701501",
".2 c #731100",
".L c #860000",
".1 c #880000",
"c0 c #434440",
"#E c #434541",
".# c #444440",
"#r c #4c3b35",
"#e c #4e3a34",
"dA c #513932",
"dm c #55352d",
".K c #5d2719",
".A c #5e2618",
"dl c #434440",
".m c #444440",
".z c #46413c",
".n c #47413c",
"#y c #47413d",
"d8 c #483f3a",
"db c #48403c",
"#s c #48413d",
"dZ c #493e38",
".0 c #1d6f7e",
".M c #1d707d",
"#q c #197787",
"#f c #197988",
".o c #206874",
".y c #216771",
"dz c #137c8d",
"#P c #177786",
"dR c #177889",
"dn c #147d8f",
"dL c #157a8b",
"#G c #177887",
"cY c #167989",
"#c c #127e90",
".3 c #127f90",
"d0 c #167584",
"cI c #167a8a",
"d7 c #177584",
"dI c #108093",
"dC c #0f8194",
".k c #0b889d",
".c c #0a889d",
"av c #0c8598",
"ag c #0c8599",
"bX c #0b869a",
"eh c #0a899d",
"e# c #0a899d",
".J c #09889d",
"#D c #0b879b",
".B c #0a889d",
"#z c #0a879b",
"da c #0a879c",
"dX c #09889d",
"c1 c #0a879c",
"dU c #09889d",
".x c #09899e",
".j c #098ba0",
".p c #09899e",
".d c #098ba0",
"#3 c #0a879c",
"aK c #09899e",
"#R c #0a879c",
"cG c #0a889c",
"bW c #09899e",
"aw c #09899e",
"bP c #09899e",
"d6 c #098a9f",
"cq c #0a889d",
"eg c #088ba0",
"d1 c #098a9f",
"ea c #098ba0",
".i c #088ba1",
".e c #088ba1",
".Z c #098a9f",
"#x c #09889d",
".N c #098a9f",
"aX c #08899f",
"#t c #09889d",
"bO c #08899f",
"aL c #088a9f",
"dk c #09889d",
"dQ c #098a9f",
"bG c #08899f",
"ef c #088ba1",
"eb c #088ba1",
"dc c #09899e",
"dM c #098a9f",
".h c #088ba0",
".f c #088ba1",
"#b c #088a9f",
"#p c #08899f",
"bF c #088a9f",
".4 c #098a9f",
"#g c #09899f",
"aY c #088a9f",
"bs c #088a9f",
"ee c #088ba0",
"dy c #088a9f",
"ec c #088ba0",
".g c #088aa0",
"do c #088a9f",
"dD c #088aa0",
".w c #088ba1",
".q c #088ba1",
"bi c #088a9f",
"ae c #08899f",
"a9 c #088aa0",
"bj c #088aa0",
"#5 c #088a9f",
"co c #08899f",
"ed c #088aa0",
"d5 c #088ba1",
"cd c #08899f",
"d2 c #088ba1",
".I c #088ca1",
".C c #088ba1",
"#O c #08899f",
"#H c #088a9f",
"cX c #088a9f",
"dW c #088ca2",
"dV c #088ca2",
"cJ c #08899f",
".v c #088ba1",
".r c #088ba1",
"au c #088a9f",
"ah c #088a9f",
"d4 c #088ba1",
"bY c #088a9f",
"d3 c #088ba1",
".Y c #088ca2",
".O c #088ca2",
"#A c #088ca2",
"c2 c #088ca2",
"dN c #088ca2",
"aA c #000000",
"aO c #010000",
"cR c #010a0b",
"bI c #012227",
"bv c #012228",
"bk c #012329",
"bb c #012429",
"a1 c #01252a",
"bR c #01252b",
"ak c #01262d",
"cO c #021214",
"cw c #021215",
"cB c #02171a",
"aN c #02262c",
"az c #02272d",
"cN c #031e23",
"cv c #032126",
"cC c #044d59",
"al c #050101",
"bS c #050201",
"#6 c #05404a",
"cQ c #054b57",
"c7 c #05515d",
"cP c #055360",
"cT c #055563",
"cx c #055664",
"ci c #055765",
"cM c #056777",
"cu c #056979",
"b7 c #065e6c",
"b6 c #065e6d",
"b8 c #066272",
"b5 c #066372",
"c6 c #066575",
"b4 c #066676",
"b9 c #066879",
"c. c #06697a",
"ch c #066a7b",
"b2 c #066b7c",
"b3 c #066c7d",
"cU c #067083",
"c# c #06788c",
"b1 c #067a8d",
"d. c #076d7e",
"cz c #077081",
"dr c #077588",
"dt c #077689",
"ds c #07788b",
"c9 c #077e92",
"dE c #077f92",
"cy c #077f93",
"cS c #078094",
"dv c #07859a",
".P c #078ca2",
"cm c #078ca3",
".Q c #078da3",
".F c #078da4",
"ax c #078ea4",
"di c #078ea5",
"d# c #078fa7",
"c5 c #0794ac",
"cg c #0796ae",
"dG c #087a8d",
"dH c #088094",
"du c #088296",
"dP c #088397",
"cA c #08859a",
"cl c #08869b",
"dO c #08889d",
"dF c #08889e",
"c3 c #08899f",
"aZ c #088a9f",
"#h c #088aa0",
"dh c #088ba0",
".G c #088ba1",
"dg c #088ca1",
"df c #088ca2",
".D c #088da3",
".s c #088ea4",
".E c #088ea5",
".u c #088fa5",
".5 c #088fa6",
".t c #0890a6",
"ck c #0891a7",
"c8 c #0891a8",
"cj c #0895ac",
"dd c #09869b",
"b. c #09879c",
"#u c #09889d",
".H c #09889e",
"bZ c #0c7b8e",
"cb c #0c7c8e",
"ai c #0c7c8f",
"at c #0c7d90",
".R c #0c7e90",
".X c #0c7e91",
"#S c #0d788a",
".6 c #0d798b",
"#2 c #0d798c",
"#a c #0d7a8c",
"cr c #0e7688",
"cF c #0e7789",
"bJ c #121110",
"dw c #126977",
"bq c #13606d",
"bD c #13616e",
"bU c #136371",
"cn c #136573",
"ca c #136673",
"cV c #136876",
"cD c #136a79",
"bT c #143338",
"ad c #145f6c",
"aI c #14606c",
"bg c #14606d",
"as c #14616e",
"dq c #14626f",
"aJ c #146370",
".S c #146371",
".W c #146471",
"bL c #151413",
"ac c #154b54",
"#Y c #15545f",
"#0 c #155a65",
"cf c #155e6a",
"b0 c #155f6b",
"bQ c #15606c",
"bV c #15616e",
"ct c #15626e",
"cL c #15626f",
"#Z c #16535d",
"#W c #16545e",
"#X c #16545f",
"#V c #165b66",
"#i c #165b67",
"ba c #165c67",
"#N c #165c68",
"bu c #165d68",
"#o c #165d69",
"aj c #165e6a",
"bK c #171514",
"cK c #175863",
"cW c #175964",
"#I c #175b66",
"ay c #175b67",
"dx c #18555f",
"#7 c #19272a",
"aa c #192c30",
"a. c #192d30",
"a# c #192d31",
"dp c #19545d",
"#9 c #1a2d30",
"aW c #1b3b40",
"ar c #1b3c41",
".7 c #1b4b53",
"#w c #1b4c53",
".T c #1b4c54",
"#8 c #1c2f32",
"bC c #1c393d",
"bp c #1c393e",
"a7 c #1c3a3f",
"ce c #1c484f",
"bH c #1c4950",
"aM c #1c4951",
"#B c #1c4a51",
"#v c #1c4a52",
"bN c #1d3a3e",
"c4 c #1d474e",
"bM c #1f1c1c",
"ab c #1f2e30",
".U c #1f3e43",
"bt c #203b40",
"a0 c #203c40",
"#U c #203c41",
"bE c #203d41",
"a8 c #203d42",
"br c #21373a",
"bh c #21373b",
".V c #21383c",
"b# c #223639",
"#j c #252a2b",
"#1 c #252b2b",
"#n c #252b2c",
".8 c #252c2d",
"#m c #262626",
"cs c #262929",
"cE c #26292a",
"#. c #272322",
"## c #272423",
"#M c #272424",
"#K c #272524",
"#l c #272525",
"#T c #272625",
"#J c #272626",
"#C c #282221",
"#k c #282321",
".9 c #282322",
"#L c #282423",
"bB c #282525",
"de c #291f1d",
"dj c #291f1e",
"am c #554e4b",
"aq c #5e5755",
"bw c #6b625d",
"ao c #6d6461",
"aP c #6e6460",
"a2 c #6e6560",
"ap c #6e6562",
"an c #6f6663",
"aB c #716763",
"bA c #7f7672",
"aV c #857c78",
"bo c #867d79",
"bx c #887c76",
"by c #887c77",
"aH c #89807c",
"a4 c #8b7f79",
"bc c #8c807a",
"bz c #8c807b",
"bm c #8d817b",
"bd c #8e837d",
"aQ c #8f827c",
"a3 c #8f837d",
"a5 c #8f847e",
"bl c #90847e",
"aR c #918680",
"be c #9a8f8a",
"a6 c #9b908b",
"aC c #9c8f8a",
"aS c #9c918c",
"bn c #9d928c",
"aT c #9d928d",
"aU c #9f948f",
"bf c #a09590",
"aD c #a19690",
"aF c #a19691",
"aE c #a29691",
"aG c #a49893",
"Qt.#Qt.#.#.#Qt.#.a.b.b.c.d.e.f.g.g.h.i.j.k.b.b.l.#.#QtQt.#.#.#Qt",
".#.m.m.m.m.m.n.b.o.p.q.r.s.t.u.u.u.u.t.s.v.w.x.y.b.z.m.m.m.m.m.#",
"Qt.m.m.m.m.A.b.B.C.D.E.D.F.F.G.H.H.G.F.F.D.E.D.I.J.b.K.m.m.m.m.#",
"Qt.m.m.m.L.M.N.O.s.P.Q.R.S.T.U.V.V.U.T.W.X.Q.P.s.Y.Z.0.1.m.m.m.#",
"Qt.m.m.2.3.4.5.G.F.6.7.8.9#.#########.#..8.T#a.F.G.u#b#c#d.m.m.#",
"Qt.m#e#f#g.t.G#h#i#j#k#l#m#m#m#m#m#m#m#m#l#k#n#o#h.G.t#p#q#r.m.#",
"Qt#s.b#t.5.G#u#v.9#l#m#m#m#m#m#m#m#m#m#m#m#m#l.9#w#u.G.u#x.b#y.#",
"Qt.b#z#A.G#h#B#C#m#m#m#m#m#m#m#m#m#m#m#m#m#m#m#m#C.7#h.G.Y#D.b#E",
"#F#G#H.s.F#I.9#J#m#K.9#L#L#L#L#L#L#L#L#L#L.9#M#m#m.9#N.F.s#O#P#Q",
".b#R.D.P#S#j#T#m#K#U#V#W#W#W#X#X#Y#X#W#W#Z#0.U#K#m#l#1#2.P.D#3.b",
"#4#5.E.Q#B.9#m#m.9#o#6#7#8#9a.a#a#a.aa#9abacad.9#m#m.9.7.Q.Eaeaf",
"agah.Qai#n#T#m#m.9ajakalamanaoaoaoaoapaq#.aras.9#m#m#T.8at.Dauav",
"aw.saxas.9#m#m#m.9ayazaAaBaCaDaEaFaFaGaH#MaraI.9#m#m#m.9aJax.saK",
"aL.5.QaM.9#m#m#m.9#IaNaOaPaQaRaSaTaTaUaV#MaWad.9#m#m#m.9.7.Q.5aX",
"aY.EaZa0#M#m#m#m.9aya1aOa2a3a4a5a6aTaUaV#Ma7aI.9#m#m#m##a8#h.u#b",
"a9.Eb.b##K#m#m#m.9babbaOa2a3bca4bdbebfaV#Ma7bg.9#m#m#m#Kbh#u.Ebi",
"bj.Eb.b##K#m#m#m.9#NbkaOa2blbmbmbcbdbnbo#Mbpbq.9#m#m#m#Kbr#u.Ebi",
"bs.EaZbt#M#m#m#m.9bubvaObwa4bxbxbybxbzbAbBbCbD.9#m#m#m#MbE#h.ubF",
"bG.5.QbH.9#m#m#m.9#obIaObJbKbKbKbKbKbKbLbMbNbD.9#m#m#m.9#B.Q.5bO",
"bP.EaxbQ.9#m#m#m.9ajbRaOaAaAaAaAaAaAaAaAbSbTbU.9#m#m#m.9bVax.sbW",
"bXbY.QbZ#j#T#m#m.9b0b1b2b3b4b5b6b7b8b4b9c.c#ca.9#m#m#T#1cb.Dahag",
"cccd.s.Pce.9#m#m.9cfcgchcicj.s.E.E.5ck.Eclcmcn.9#m#m.9bH.P.scocp",
".bcq.s.Pcrcs#T#m.9ctcucvcwcx.G#h.GcyczcAcBcCcD.9#m#TcEcF.P.DcG.b",
"cHcIcJ.s.QcK.9#m.9cLcMcNcOcP.G#h.5cQcRcScTcUcV.9#m.9cW.Q.scXcYcZ",
"c0.bc1c2.Gc3c4#C.9b0c5c6c7c8#h#h.Gc9d.#h.ud#ca.9#CceaZ.G#Ada.b.#",
"Qtdb.bdc.5.Gddc4decfaxdf.DaZdfdg.G.D.D#hdhdicndjceb..G.5dk.b#s.#",
"Qtdldmdndo.t.Gc3dpdq.Q#h#h.Gdrdsdsdt.Gcldudvdwdxc3.G.tdydzdA.m.#",
"Qt.mdldBdCdD.5.G.Pb.#h#h#hdhdEcScScydFdGdGdH#u.P.G.5dydIdJ.m.m.#",
"Qt.m.m.mdKdLdMdN.s#h#h#h#h#h.G.G.G.GdOdPdO#h#h.sc2dQdRdS.m.m.m.#",
"Qt.m.m.m.mdT.bdUdV.s.s.G#h#h#h#h#h#h#hdh.G.s.sdWdX.bdY.m.m.m.m.#",
".#.m.m.m.m.mdZ.bd0d1d2d3.u.5.E.s.s.E.5.ud4d5d6d7.bd8.m.m.m.m.m.#",
"Qt.#.#.#.#.#.#.#d9.be.e#eaebecededeeefegehei.bej.#.#.#.#.#.#.#Qt"};
